######## ######## ######## ##               ######## ########  ######## ######## 
##       ##       ##       ##               ##       ##     ## ##       ##       
##       ##       ##       ##               ##       ##     ## ##       ##       
######   ######   ######   ##       ####### ######   ########  ######   ######   
##       ##       ##       ##               ##       ##   ##   ##       ##       
##       ##       ##       ##               ##       ##    ##  ##       ##       
##       ######## ######## ########         ##       ##     ## ######## ######## 

Genre:Action | Drama | Sport
Language:English
IMDb: 
http://www.imdb.com/title/tt1426325/
Source:1080p.BluRay.x264-Japhson

Format : MPEG-4
Format profile : Base Media
Codec ID : isom
File size : 2.42 GiB
Duration : 1h 48mn
Overall bit rate : 3 185 Kbps

Video
Format profile : High@L4.1
Format settings, CABAC : Yes
Format settings, ReFrames : 3 frames
Codec ID : avc1
Codec ID/Info : Advanced Video Coding
Duration : 1h 48mn
Bit rate mode : Variable
Bit rate : 2 760 Kbps
Maximum bit rate : 17.6 Mbps
Width : 1 280 pixels
Height : 720 pixels
Display aspect ratio : 16:9
Frame rate mode : Constant
Frame rate : 23.976 fps
Color space : YUV
Chroma subsampling : 4:2:0
Bit depth : 8 bits
Scan type : Progressive
Bits/(Pixel*Frame) : 0.125
Stream size : 2.08 GiB (86%)
Writing library : x264 

Audio
ID : 2
Format : AAC
Format/Info : Advanced Audio Codec
Format version : Version 4
Format profile : LC
Format settings, SBR : No
Codec ID : 40
Duration : 1h 48mn
Bit rate mode : Variable
Bit rate : 443 Kbps
Maximum bit rate : 572 Kbps
Channel(s) : 6 channels
Channel positions : Front: L C R, Side: L R, LFE
Sampling rate : 48.0 KHz
Stream size : 344 MiB (14%)


Plot:
The best fighter in the world works two jobs. The only problem... he doesn't know he's the best


Greets:

INK,CRYS,IMAGINE,LKRG,FXG,3Li,FLAWL3SS,TA,iLLUSiON,ViSiON,DTRG SAFCuk009,LU,TheFalcon007,MYSTiC,PrisM,Noir,WBZ,LAP,Rx,Kingdom,SAFCuk009+Fabreezy,HDLiTE,TWiZTED,ExtraTorrentRG.ELEKTRI4KA,MAGNAT,CM8
And to all the other p2p grps past and present





================================== 
http://thepiratebay.org/user/hiest
==================================





Screen Shots:
 
http://www.postimg.com/31000/photo-30001.jpg
 
http://www.postimg.com/30000/photo-29998.jpg
 
http://www.postimg.com/30000/photo-30000.jpg
 
http://www.postimg.com/30000/photo-29999.jpg

######## ######## ######## ##               ######## ########  ######## ######## 
##       ##       ##       ##               ##       ##     ## ##       ##       
##       ##       ##       ##               ##       ##     ## ##       ##       
######   ######   ######   ##       ####### ######   ########  ######   ######   
##       ##       ##       ##               ##       ##   ##   ##       ##       
##       ##       ##       ##               ##       ##    ##  ##       ##       
##       ######## ######## ########         ##       ##     ## ######## ######## 
